<?xml version="1.0" encoding="utf-8"?>
<!-- Generator: Adobe Illustrator 16.0.0, SVG Export Plug-In . SVG Version: 6.00 Build 0)  -->
<!DOCTYPE svg PUBLIC "-//W3C//DTD SVG 1.1//EN" "http://www.w3.org/Graphics/SVG/1.1/DTD/svg11.dtd">
<svg version="1.1" id="Layer_1" xmlns="http://www.w3.org/2000/svg" xmlns:xlink="http://www.w3.org/1999/xlink" x="0px" y="0px"
	 width="1920px" height="1680px" viewBox="0 -300 1920 1680" enable-background="new 0 -300 1920 1680" xml:space="preserve">
<g>
	<polyline fill="none" stroke="#00C8D6" stroke-width="60" stroke-miterlimit="10" points="1287.45,313.963 1406.463,341.625 
		1473.331,239.359 1592.343,267.02 1659.21,164.754 1778.229,192.413 1845.102,90.146 	"/>
</g>
<polygon fill="#00C8D6" points="1494.37,961.192 1688.758,719.063 1801.255,1008.475 "/>
<polygon fill="#00A4B0" points="1070.18,61.056 984.488,167.793 934.896,40.211 "/>
<polygon fill="#00A4B0" points="-520.58,460.849 -679.469,354.133 -507.605,269.889 "/>
<circle fill="#00C8D6" cx="111.345" cy="286.23" r="158.992"/>
<circle fill="#00A4B0" cx="2080.505" cy="628.1" r="62.996"/>
<circle fill="#00A4B0" cx="1801.255" cy="575.341" r="62.996"/>
<g>
	
		<rect x="209.851" y="656.902" transform="matrix(0.9909 -0.1346 0.1346 0.9909 -108.8592 42.6998)" fill="#00A4B0" width="103" height="339.001"/>
	
		<rect x="92.412" y="798.431" transform="matrix(0.9909 -0.1346 0.1346 0.9909 -120.565 27.6111)" fill="#00C8D6" width="103" height="214"/>
	
		<rect x="-25.884" y="927.014" transform="matrix(0.9909 -0.1346 0.1346 0.9909 -131.4114 12.3484)" fill="#00A4B0" width="103" height="101.999"/>
</g>
</svg>
